<svg xmlns="http://www.w3.org/2000/svg" viewBox="0 0 360 152">
<g fill="none" stroke="#000" stroke-width="3.5" stroke-linecap="round" stroke-linejoin="round"><path d="M37.9 62.6 C41.7 59.7 50.5 50.5 60.9 45.2 C71.2 40 85.3 34.8 100 31.1 C114.7 27.4 132.4 25.1 148.8 23.1 C165.3 21.1 182.1 19.9 198.9 19.3 C215.6 18.7 233.6 18.2 249.2 19.5 C264.7 20.8 280.4 23.6 292.2 27.1 C304.1 30.7 312.6 35.8 320.1 40.8 C327.6 45.7 333.5 51.1 337.2 56.7 C341 62.4 344.5 68.6 342.8 74.7 C341 80.9 335.1 87.7 326.9 93.5 C318.6 99.3 305.7 104.7 293.2 109.6 C280.8 114.6 267.1 119.2 252.2 123.2 C237.3 127.1 220.6 131.2 203.7 133.3 C186.8 135.5 167.5 136.4 150.6 136.1 C133.8 135.8 117.6 133.7 102.5 131.6 C87.4 129.4 72.9 126.8 60.3 123.3 C47.7 119.8 34.5 115.7 26.7 110.7 C18.8 105.6 14.3 99.1 13 93 C11.8 86.9 15.3 80.2 19.2 73.9 C23 67.5 28.1 61.1 36 55.1 C43.9 49 53.6 42.4 66.5 37.3 C79.3 32.3 105.3 26.7 113.1 24.6"/></g>
</svg>
